<svg width="500" height="500" viewBox="0 0 500 500" fill="none" xmlns="http://www.w3.org/2000/svg">
<path d="M179.023 40.3458C161.678 34.0055 145.249 28 119.812 28C65.9375 28 39 81.8824 39 149.235C39 192.301 50.0134 218.846 61.4769 246.474C67.9417 262.057 74.5497 277.982 79.4062 297.412C83.4199 313.469 85.0416 336.703 86.7658 361.411C90.828 419.617 95.461 486 133.281 486C157.498 486 168.108 447.897 179.789 405.947C194.097 354.565 210.013 297.412 254.5 297.412C298.987 297.412 314.902 354.565 329.211 405.947C340.891 447.897 351.502 486 375.719 486C413.539 486 418.172 419.617 422.234 361.411C423.958 336.703 425.58 313.469 429.594 297.412C434.451 277.982 441.058 262.057 447.523 246.474C458.988 218.846 470 192.301 470 149.235C470 81.8824 443.062 28 389.187 28C363.75 28 347.321 34.0055 329.976 40.3458C310.584 47.4343 290.049 54.9412 254.5 54.9412C218.951 54.9412 198.415 47.4343 179.023 40.3458Z" stroke="black" stroke-width="10" stroke-linecap="round" stroke-linejoin="round"/>
<path d="M39.3533 107C21.1471 115.853 2.94103 138.538 19.492 156.797C46.2701 186.338 424.993 373.414 463.888 323.617C488.388 292.249 462.233 260.264 449.819 251.411" stroke="black" stroke-width="5"/>
</svg>
